Coordinates
version=1
nRows=6
nColumns=36
inDegrees=yes

Units are S.I. units (second, meters, Newtons, ...)
If the header above contains a line with 'inDegrees', this indicates whether rotational values are in degrees (yes) or radians (no).

endheader
time	pelvis_tilt	pelvis_list	pelvis_rotation	pelvis_tx	pelvis_ty	pelvis_tz	hip_flexion_r	hip_adduction_r	hip_rotation_r	knee_angle_r	knee_angle_r_beta	ankle_angle_r	subtalar_angle_r	mtp_angle_r	hip_flexion_l	hip_adduction_l	hip_rotation_l	knee_angle_l	knee_angle_l_beta	ankle_angle_l	subtalar_angle_l	mtp_angle_l	lumbar_extension	lumbar_bending	lumbar_rotation	arm_flex_r	arm_add_r	arm_rot_r	elbow_flex_r	pro_sup_r	arm_flex_l	arm_add_l	arm_rot_l	elbow_flex_l	pro_sup_l
      1.30000000	     -7.13473660	      6.61759680	     -0.07042833	     -0.46499178	      1.18192110	     -0.58500361	     28.80841720	     -9.56152520	     -4.32016418	      8.22678419	      0.14358447	    -38.42513617	     -4.18474451	     -7.36229831	     38.11496928	      0.64118596	     -6.17866554	     29.07075644	      0.50738042	    -26.32059640	     -8.57953460	     -7.36229831	    -21.45544354	     -4.71844836	     -4.46001870	    118.12485142	    -56.00250031	     79.26809053	     94.13555589	     85.67275363	    149.74146820	    -78.02757175	    139.24827049	     78.80098915	    103.98842220
      1.31000000	     -6.98242076	      6.56380655	     -0.35446375	     -0.45151955	      1.16266987	     -0.58467742	     28.86505876	     -9.53228954	     -4.72786564	      7.99317655	      0.13950725	    -38.96814184	     -3.67054099	     -7.36698301	     37.74643347	      0.41336005	     -6.05147258	     27.09757121	      0.47294184	    -28.67070945	     -7.67788356	     -7.36698301	    -21.36997240	     -4.74013208	     -2.21738540	    126.29079204	    -59.81756032	     88.18803230	     97.27437530	     86.69852900	    154.41322717	    -77.07536958	    145.64223983	     81.48796164	    105.50405222
      1.32000000	     -6.80767347	      6.55606767	     -0.68120592	     -0.43797697	      1.14234633	     -0.58407288	     28.93826904	     -9.49954567	     -4.88630879	      7.97669208	      0.13921954	    -39.41927848	     -3.26526056	     -7.42700479	     37.37829225	      0.17373070	     -5.94684999	     25.35853200	      0.44258988	    -30.70060816	     -6.66010448	     -7.42700479	    -21.42463883	     -4.93259145	     -1.20175642	    134.00380420	    -62.00408283	     96.48262796	    100.24904701	     81.04420012	    169.26286303	    -76.08037586	    162.74877736	     86.16908920	    102.49836518
      1.33000000	     -6.63511219	      6.47983796	     -1.03736240	     -0.42432045	      1.12098702	     -0.58358593	     29.10250117	     -9.42296594	     -5.02662744	      8.32973644	      0.14538133	    -39.64816467	     -2.68023695	     -7.43251109	     37.06233228	     -0.13252717	     -5.71621102	     23.92326746	      0.41753978	    -32.14624778	     -5.60832967	     -7.43251109	    -21.41835067	     -5.03906368	      1.03521605	    146.23895223	    -64.87750709	    109.07238028	    103.55389419	     82.17981350	    174.17226754	    -74.52918122	    169.12353616	     89.44832764	    103.72759043
      1.34000000	     -6.46322903	      6.32032020	     -1.33408764	     -0.41068154	      1.09866605	     -0.58340546	     29.27458566	     -9.26225758	     -4.89460643	      8.87050986	      0.15481960	    -40.15341544	     -2.43404968	     -7.44895364	     36.80995755	     -0.40455632	     -5.22178457	     22.76847054	      0.39738478	    -33.30036572	     -5.19146777	     -7.44895364	    -21.54621477	     -4.92877389	      4.19753774	    165.91681631	    -66.57798858	    129.17371384	    107.82188882	     79.60005319	    174.01243861	    -73.10442236	    170.18543845	     92.55452547	    101.58117880
      1.35000000	     -6.26949086	      6.03716771	     -1.59224550	     -0.39710364	      1.07551777	     -0.58343075	     29.50317622	     -8.96716705	     -4.51452562	      9.81177677	      0.17124781	    -40.67117153	     -2.68324272	     -7.46517042	     36.63065432	     -0.71879968	     -4.43931989	     21.96200654	      0.38330932	    -34.11194602	     -5.19607758	     -7.46517042	    -21.15943718	     -4.47764928	      6.09911409	    177.26369882	    -65.73794375	    141.04416507	    110.06039691	     76.43784624	    176.80277777	    -72.28480756	    174.55629068	     95.26688546	    100.63169382
